REM GENRE Rock
REM DATE 1973
REM DISCID BF11D60D
REM COMMENT "ExactAudioCopy v1.0b3"
PERFORMER "Lynyrd Skynyrd"
TITLE "(pronounced 'leh-'nérd 'skin-'nérd)"
FILE "Lynyrd Skynyrd\(pronounced 'leh-'nérd 'skin-'nérd)\01 - I Ain't the One.wav" WAVE
  TRACK 01 AUDIO
    TITLE "I Ain't the One"
    PERFORMER "Lynyrd Skynyrd"
    INDEX 01 00:00:00
FILE "Lynyrd Skynyrd\(pronounced 'leh-'nérd 'skin-'nérd)\02 - Tuesday's Gone.wav" WAVE
  TRACK 02 AUDIO
    TITLE "Tuesday's Gone"
    PERFORMER "Lynyrd Skynyrd"
    INDEX 01 00:00:00
FILE "Lynyrd Skynyrd\(pronounced 'leh-'nérd 'skin-'nérd)\03 - Gimme Three Steps.wav" WAVE
  TRACK 03 AUDIO
    TITLE "Gimme Three Steps"
    PERFORMER "Lynyrd Skynyrd"
    INDEX 01 00:00:00
FILE "Lynyrd Skynyrd\(pronounced 'leh-'nérd 'skin-'nérd)\04 - Simple Man.wav" WAVE
  TRACK 04 AUDIO
    TITLE "Simple Man"
    PERFORMER "Lynyrd Skynyrd"
    INDEX 01 00:00:00
FILE "Lynyrd Skynyrd\(pronounced 'leh-'nérd 'skin-'nérd)\05 - Things Goin' On.wav" WAVE
  TRACK 05 AUDIO
    TITLE "Things Goin' On"
    PERFORMER "Lynyrd Skynyrd"
    INDEX 01 00:00:00
FILE "Lynyrd Skynyrd\(pronounced 'leh-'nérd 'skin-'nérd)\06 - Mississippi Kid.wav" WAVE
  TRACK 06 AUDIO
    TITLE "Mississippi Kid"
    PERFORMER "Lynyrd Skynyrd"
    INDEX 01 00:00:00
FILE "Lynyrd Skynyrd\(pronounced 'leh-'nérd 'skin-'nérd)\07 - Poison Whiskey.wav" WAVE
  TRACK 07 AUDIO
    TITLE "Poison Whiskey"
    PERFORMER "Lynyrd Skynyrd"
    INDEX 01 00:00:00
FILE "Lynyrd Skynyrd\(pronounced 'leh-'nérd 'skin-'nérd)\08 - Free Bird.wav" WAVE
  TRACK 08 AUDIO
    TITLE "Free Bird"
    PERFORMER "Lynyrd Skynyrd"
    INDEX 01 00:00:00
  TRACK 09 AUDIO
    TITLE "Mr. Banker [Demo]"
    PERFORMER "Lynyrd Skynyrd"
    INDEX 00 09:10:72
FILE "Lynyrd Skynyrd\(pronounced 'leh-'nérd 'skin-'nérd)\09 - Mr. Banker [Demo].wav" WAVE
    INDEX 01 00:00:00
  TRACK 10 AUDIO
    TITLE "Down South Jukin' [Demo]"
    PERFORMER "Lynyrd Skynyrd"
    INDEX 00 05:21:07
FILE "Lynyrd Skynyrd\(pronounced 'leh-'nérd 'skin-'nérd)\10 - Down South Jukin' [Demo].wav" WAVE
    INDEX 01 00:00:00
  TRACK 11 AUDIO
    TITLE "Tuesday's Gone [Demo]"
    PERFORMER "Lynyrd Skynyrd"
    INDEX 00 02:55:33
FILE "Lynyrd Skynyrd\(pronounced 'leh-'nérd 'skin-'nérd)\11 - Tuesday's Gone [Demo].wav" WAVE
    INDEX 01 00:00:00
  TRACK 12 AUDIO
    TITLE "Gimme Three Steps [Demo]"
    PERFORMER "Lynyrd Skynyrd"
    INDEX 00 07:52:62
FILE "Lynyrd Skynyrd\(pronounced 'leh-'nérd 'skin-'nérd)\12 - Gimme Three Steps [Demo].wav" WAVE
    INDEX 01 00:00:00
  TRACK 13 AUDIO
    TITLE "Free Bird [Demo]"
    PERFORMER "Lynyrd Skynyrd"
    INDEX 00 05:17:10
FILE "Lynyrd Skynyrd\(pronounced 'leh-'nérd 'skin-'nérd)\13 - Free Bird [Demo].wav" WAVE
    INDEX 01 00:00:00
